Normalized EMG Linear Envelopes
nRows=111
nColumns=4

endheader
time	 med_gas_r	  soleus_r	 tib_ant_r	
3.625	  0.007311	  0.005860	  0.001845	
3.6875	  0.007418	  0.005258	  0.001791	
3.75	  0.007446	  0.005578	  0.001726	
3.8125	  0.007421	  0.007477	  0.001661	
3.875	  0.007360	  0.011182	  0.001609	
3.9375	  0.007225	  0.015514	  0.001546	
4	  0.007033	  0.017818	  0.001433	
4.0625	  0.006881	  0.016389	  0.001310	
4.125	  0.006862	  0.012479	  0.001376	
4.1875	  0.007025	  0.008688	  0.001973	
4.25	  0.007335	  0.006487	  0.003473	
4.3125	  0.007643	  0.005899	  0.005896	
4.375	  0.007725	  0.006116	  0.008258	
4.4375	  0.007437	  0.005912	  0.008864	
4.5	  0.006929	  0.004275	  0.007098	
4.5625	  0.006560	  0.001042	  0.004297	
4.625	  0.006448	 -0.002632	  0.002367	
4.6875	  0.006337	 -0.003583	  0.002427	
4.75	  0.005987	  0.004245	  0.004828	
4.8125	  0.005626	  0.028948	  0.009169	
4.875	  0.006531	  0.075872	  0.014141	
4.9375	  0.012817	  0.144512	  0.018487	
5	  0.034358	  0.234221	  0.022451	
5.0625	  0.086876	  0.348164	  0.027710	
5.125	  0.182861	  0.480997	  0.035556	
5.1875	  0.315057	  0.599974	  0.044959	
5.25	  0.448858	  0.650944	  0.052394	
5.3125	  0.538537	  0.603608	  0.054559	
5.375	  0.559161	  0.485887	  0.051612	
5.4375	  0.525454	  0.355215	  0.046583	
5.5	  0.477738	  0.253666	  0.041946	
5.5625	  0.452667	  0.202777	  0.038604	
5.625	  0.468994	  0.209013	  0.037344	
5.6875	  0.525480	  0.257595	  0.038652	
5.75	  0.599657	  0.316200	  0.041326	
5.8125	  0.660168	  0.354490	  0.043208	
5.875	  0.691313	  0.364461	  0.043420	
5.9375	  0.701287	  0.362068	  0.042967	
6	  0.707296	  0.365402	  0.043196	
6.0625	  0.718579	  0.376820	  0.044253	
6.125	  0.730899	  0.388514	  0.045396	
6.1875	  0.734110	  0.393379	  0.046514	
6.25	  0.727125	  0.389424	  0.048453	
6.3125	  0.721600	  0.383088	  0.051743	
6.375	  0.725360	  0.383811	  0.055787	
6.4375	  0.729518	  0.393860	  0.059329	
6.5	  0.719723	  0.413247	  0.061487	
6.5625	  0.691088	  0.444552	  0.062342	
6.625	  0.647735	  0.478085	  0.062380	
6.6875	  0.603181	  0.492347	  0.062072	
6.75	  0.580292	  0.483513	  0.062425	
6.8125	  0.589924	  0.472659	  0.064367	
6.875	  0.615652	  0.479956	  0.067326	
6.9375	  0.637489	  0.505984	  0.069537	
7	  0.658842	  0.532816	  0.069572	
7.0625	  0.697653	  0.541303	  0.067647	
7.125	  0.761780	  0.532217	  0.065599	
7.1875	  0.838047	  0.524628	  0.064789	
7.25	  0.900028	  0.533924	  0.064621	
7.3125	  0.927665	  0.558346	  0.063852	
7.375	  0.919739	  0.586432	  0.062091	
7.4375	  0.887082	  0.609683	  0.059603	
7.5	  0.841170	  0.620164	  0.057018	
7.5625	  0.791631	  0.606320	  0.055495	
7.625	  0.746973	  0.568466	  0.056064	
7.6875	  0.713227	  0.528446	  0.058473	
7.75	  0.692938	  0.509547	  0.061130	
7.8125	  0.685426	  0.517308	  0.062337	
7.875	  0.687691	  0.543927	  0.061590	
7.9375	  0.697281	  0.575153	  0.059770	
8	  0.715315	  0.590554	  0.058062	
8.0625	  0.743263	  0.571431	  0.056867	
8.125	  0.775423	  0.513808	  0.055875	
8.1875	  0.797364	  0.432809	  0.054626	
8.25	  0.794327	  0.353692	  0.052784	
8.3125	  0.763788	  0.297068	  0.050467	
8.375	  0.719403	  0.272049	  0.048335	
8.4375	  0.680111	  0.274823	  0.046891	
8.5	  0.656218	  0.289923	  0.046147	
8.5625	  0.645132	  0.304539	  0.046051	
8.625	  0.637386	  0.318842	  0.046483	
8.6875	  0.629018	  0.333905	  0.047003	
8.75	  0.629199	  0.342925	  0.047335	
8.8125	  0.649222	  0.341431	  0.048011	
8.875	  0.684712	  0.336180	  0.049865	
8.9375	  0.718129	  0.340824	  0.052891	
9	  0.735233	  0.362912	  0.056047	
9.0625	  0.730362	  0.392854	  0.058031	
9.125	  0.704523	  0.409195	  0.058058	
9.1875	  0.667463	  0.399711	  0.056328	
9.25	  0.635679	  0.374440	  0.053844	
9.3125	  0.622246	  0.352531	  0.051459	
9.375	  0.625464	  0.341640	  0.049265	
9.4375	  0.627649	  0.336254	  0.046914	
9.5	  0.609092	  0.326652	  0.044094	
9.5625	  0.564423	  0.303676	  0.040432	
9.625	  0.507313	  0.264170	  0.035723	
9.6875	  0.460571	  0.217161	  0.030884	
9.75	  0.437796	  0.180570	  0.027773	
9.8125	  0.433968	  0.167333	  0.027326	
9.875	  0.434521	  0.175401	  0.028557	
9.9375	  0.428462	  0.192396	  0.029440	
10	  0.411676	  0.206378	  0.028486	
10.0625	  0.383654	  0.211523	  0.025813	
10.125	  0.343459	  0.206967	  0.022615	
10.1875	  0.289063	  0.192871	  0.019626	
10.25	  0.222335	  0.169486	  0.016702	
10.3125	  0.152656	  0.138776	  0.013597	
10.375	  0.091949	  0.104861	  0.010385	
10.4375	  0.045683	  0.072327	  0.007227	
10.5	  0.009320	  0.042649	  0.004127	
